<svg width="288" height="85" viewBox="0 0 288 85" fill="none" xmlns="http://www.w3.org/2000/svg">
<g clip-path="url(#clip0_1716_2945)">
<path d="M23.5345 50.4262C10.2186 50.4262 0.144775 40.0801 0.144775 26.3723C0.144775 19.8517 2.51848 13.7948 6.80273 9.33176C11.1449 4.81079 17.0791 2.31847 23.5345 2.31847C26.662 2.29168 29.7621 2.9051 32.6443 4.1211C35.5265 5.33709 38.1301 7.12998 40.2951 9.38972C44.5794 13.8817 46.9242 19.9097 46.9242 26.4013C46.9242 32.893 44.5504 38.9789 40.2662 43.4419C35.9241 47.9339 30.0043 50.4262 23.5345 50.4262ZM23.5345 3.24584C10.7396 3.24584 1.10005 13.1862 1.10005 26.3723C1.10005 32.7481 3.35796 38.6311 7.46853 42.8623C11.5791 47.0934 17.3107 49.4698 23.5345 49.4698C29.7582 49.4698 35.4898 47.1224 39.6004 42.8623C43.711 38.6021 45.9689 32.7481 45.9689 26.3723C45.9689 13.1572 36.3004 3.24584 23.5345 3.24584V3.24584Z" fill="#48539F"/>
<path d="M23.5344 2.43438C36.9661 2.43438 46.7794 13.1862 46.7794 26.3433C46.7794 39.6454 36.9082 50.2523 23.5344 50.2523C10.1027 50.2523 0.289476 39.7613 0.289476 26.3433C0.289476 13.0413 10.1606 2.43438 23.5344 2.43438M23.5344 49.6147C36.5609 49.6147 46.1136 39.5875 46.1136 26.3433C46.1136 13.3021 36.5609 3.07195 23.5344 3.07195C10.508 3.07195 0.955273 13.2731 0.955273 26.3433C0.955273 39.5875 10.479 49.6147 23.5344 49.6147M23.5344 2.14457C17.0502 2.14457 11.058 4.6369 6.6869 9.21583C2.37371 13.7078 0 19.7937 0 26.3723C0 40.1671 10.1027 50.5711 23.5344 50.5711C30.0187 50.5711 36.0108 48.0788 40.3819 43.4998C44.6951 39.0078 47.0833 32.9219 47.0833 26.3318C47.0833 19.8111 44.7096 13.7252 40.4254 9.23322C38.2413 6.9645 35.6186 5.16491 32.7171 3.9442C29.8156 2.72348 26.6961 2.10721 23.5489 2.13298L23.5344 2.14457ZM23.5344 49.3249C17.3396 49.3249 11.6659 46.9775 7.55533 42.7463C3.44477 38.5152 1.24475 32.6901 1.24475 26.3433C1.24475 13.2441 10.8264 3.36176 23.5344 3.36176C36.2424 3.36176 45.8241 13.2441 45.8241 26.3433C45.8241 32.6901 43.5662 38.5152 39.5135 42.7463C35.4029 46.9775 29.7292 49.3249 23.5344 49.3249V49.3249Z" fill="#4955A0"/>
<path d="M58.4453 49.5568V15.012H59.4006V23.0396H59.5453C60.7901 19.1272 64.3506 15.012 70.5744 15.012H72.5718V15.9683H70.5744C63.2506 15.9683 59.4006 22.431 59.4006 28.8067V49.5858H58.4453V49.5568Z" fill="#E9547F"/>
<path d="M72.4269 15.1569V15.8234H70.5743C63.0768 15.8234 59.2557 22.344 59.2557 28.8067V49.4409H58.5899V15.1569H59.2557V23.1845H59.661C60.9636 18.9533 64.611 15.1569 70.5743 15.1569H72.4269M72.7164 14.867H70.5743C67.7084 14.867 65.219 15.7075 63.1637 17.3594C61.5087 18.7371 60.254 20.5348 59.5307 22.5643V14.8265H58.3149V49.6611H59.5597V28.7371C59.5597 25.4334 60.5439 22.3035 62.3387 20.014C64.336 17.4347 67.2019 16.0437 70.5887 16.0437H72.7309V14.8555L72.7164 14.867Z" fill="#E9547F"/>
<path d="M83.6009 49.5568C83.5815 49.558 83.5621 49.5552 83.544 49.5483C83.5259 49.5415 83.5094 49.5309 83.4957 49.5172C83.482 49.5034 83.4714 49.487 83.4645 49.4688C83.4577 49.4506 83.4548 49.4312 83.4561 49.4119V15.1568C83.4548 15.1375 83.4577 15.1181 83.4645 15.0999C83.4714 15.0817 83.482 15.0652 83.4957 15.0515C83.5094 15.0378 83.5259 15.0272 83.544 15.0203C83.5621 15.0135 83.5815 15.0106 83.6009 15.0119H84.2667C84.286 15.0106 84.3054 15.0135 84.3235 15.0203C84.3417 15.0272 84.3581 15.0378 84.3719 15.0515C84.3856 15.0652 84.3962 15.0817 84.403 15.0999C84.4098 15.1181 84.4127 15.1375 84.4114 15.1568V49.4119C84.4127 49.4312 84.4098 49.4506 84.403 49.4688C84.3962 49.487 84.3856 49.5034 84.3719 49.5172C84.3581 49.5309 84.3417 49.5415 84.3235 49.5483C84.3054 49.5552 84.286 49.558 84.2667 49.5568H83.6009ZM83.9482 5.85407C83.7308 5.85679 83.515 5.81593 83.3136 5.73387C83.1122 5.65182 82.9292 5.53025 82.7754 5.37631C82.6217 5.22237 82.5002 5.03918 82.4183 4.83754C82.3363 4.63589 82.2955 4.41986 82.2982 4.20218C82.2955 3.98449 82.3363 3.76846 82.4183 3.56681C82.5002 3.36517 82.6217 3.18198 82.7754 3.02804C82.9292 2.8741 83.1122 2.75253 83.3136 2.67048C83.515 2.58843 83.7308 2.54756 83.9482 2.55028C84.1714 2.54136 84.3941 2.57733 84.6032 2.65609C84.8122 2.73484 85.0034 2.85478 85.1653 3.0088C85.3273 3.16282 85.4567 3.34779 85.546 3.55277C85.6353 3.75775 85.6826 3.97857 85.6851 4.20218C85.6826 4.42578 85.6353 4.64661 85.546 4.85158C85.4567 5.05656 85.3273 5.24153 85.1653 5.39555C85.0034 5.54957 84.8122 5.6695 84.6032 5.74826C84.3941 5.82702 84.1714 5.86299 83.9482 5.85407V5.85407Z" fill="#D7DB3D"/>
<path d="M83.948 2.69521C84.1525 2.68504 84.3569 2.7164 84.5489 2.78742C84.741 2.85844 84.9167 2.96764 85.0654 3.10845C85.2142 3.24925 85.3329 3.41875 85.4145 3.60672C85.4961 3.79469 85.5388 3.99725 85.5401 4.2022C85.5388 4.40715 85.4961 4.60971 85.4145 4.79768C85.3329 4.98566 85.2142 5.15515 85.0654 5.29596C84.9167 5.43676 84.741 5.54596 84.5489 5.61698C84.3569 5.688 84.1525 5.71936 83.948 5.70919C83.7493 5.71313 83.5518 5.67685 83.3674 5.60251C83.1829 5.52817 83.0154 5.41731 82.8749 5.27658C82.7343 5.13585 82.6236 4.96815 82.5493 4.78353C82.4751 4.59892 82.4388 4.40118 82.4427 4.2022C82.4388 4.00322 82.4751 3.80549 82.5493 3.62087C82.6236 3.43625 82.7343 3.26855 82.8749 3.12782C83.0154 2.98709 83.1829 2.87623 83.3674 2.80189C83.5518 2.72755 83.7493 2.69127 83.948 2.69521M84.2664 15.1569V49.4119H83.6007V15.1569H84.2664ZM83.948 2.40541C83.7114 2.40189 83.4764 2.44597 83.2571 2.53502C83.0377 2.62407 82.8385 2.75629 82.6711 2.92384C82.5038 3.0914 82.3717 3.29087 82.2827 3.51046C82.1938 3.73005 82.1498 3.96527 82.1533 4.2022C82.1498 4.43913 82.1938 4.67436 82.2827 4.89394C82.3717 5.11353 82.5038 5.31301 82.6711 5.48056C82.8385 5.64812 83.0377 5.78034 83.2571 5.86939C83.4764 5.95844 83.7114 6.00251 83.948 5.999C84.1905 6.00912 84.4326 5.97023 84.6597 5.88462C84.8869 5.79901 85.0944 5.66846 85.2701 5.50075C85.4457 5.33304 85.5858 5.13161 85.6819 4.90851C85.778 4.6854 85.8283 4.44518 85.8296 4.2022C85.8259 3.95993 85.7741 3.72082 85.6771 3.49882C85.5801 3.27681 85.44 3.07635 85.2649 2.90911C85.0897 2.74187 84.8831 2.6112 84.657 2.52472C84.4309 2.43825 84.1899 2.39769 83.948 2.40541V2.40541ZM84.2664 14.8671H83.6007C83.562 14.8645 83.5232 14.8702 83.4869 14.8839C83.4506 14.8975 83.4177 14.9188 83.3903 14.9462C83.3629 14.9737 83.3416 15.0067 83.328 15.043C83.3144 15.0793 83.3086 15.1181 83.3112 15.1569V49.4119C83.3086 49.4506 83.3144 49.4894 83.328 49.5258C83.3416 49.5621 83.3629 49.5951 83.3903 49.6225C83.4177 49.6499 83.4506 49.6712 83.4869 49.6849C83.5232 49.6985 83.562 49.7043 83.6007 49.7017H84.2664C84.3051 49.7043 84.3439 49.6985 84.3802 49.6849C84.4165 49.6712 84.4494 49.6499 84.4768 49.6225C84.5042 49.5951 84.5255 49.5621 84.5391 49.5258C84.5528 49.4894 84.5585 49.4506 84.5559 49.4119V15.1569C84.5585 15.1181 84.5528 15.0793 84.5391 15.043C84.5255 15.0067 84.5042 14.9737 84.4768 14.9462C84.4494 14.9188 84.4165 14.8975 84.3802 14.8839C84.3439 14.8702 84.3051 14.8645 84.2664 14.8671V14.8671Z" fill="#D7DB3D"/>
<path d="M97.9588 54.9472H101.722C102.706 59.5551 106.933 61.9315 112.519 61.9315C120.683 61.9315 124.967 57.3815 124.967 50.0784V42.6304H124.562C123.433 45.2097 119.496 50.2813 111.796 50.2813C101.722 50.2813 95.0061 42.8333 95.0061 32.3713C95.0061 21.7644 101.722 14.3164 111.535 14.3164C119.033 14.3164 123.172 19.0692 124.446 22.0832H124.851V15.1568H128.788V50.0784C128.788 59.7579 122.477 65.4381 112.519 65.4381C104.154 65.4381 99.0298 61.0621 97.9588 54.9472ZM124.938 32.3423C124.938 23.5902 119.554 17.91 111.969 17.91C104.211 17.91 99.0009 23.851 99.0009 32.3423C99.0009 40.9785 104.211 46.7167 112.027 46.7167C120.133 46.7167 124.952 40.1961 124.952 32.3423H124.938Z" fill="#44B393"/>
<path d="M139.441 5.12954C139.43 4.63186 139.52 4.13717 139.706 3.67526C139.891 3.21334 140.168 2.79376 140.519 2.44177C140.871 2.08978 141.29 1.81266 141.751 1.62711C142.213 1.44155 142.707 1.35139 143.204 1.36207C143.705 1.34548 144.205 1.43115 144.672 1.61387C145.139 1.79658 145.565 2.07253 145.922 2.42492C146.279 2.77732 146.562 3.19881 146.751 3.66376C146.941 4.12871 147.034 4.62741 147.025 5.12954C147.04 5.63604 146.952 6.1403 146.765 6.61132C146.579 7.08234 146.298 7.51016 145.94 7.86847C145.582 8.22678 145.155 8.508 144.684 8.69485C144.214 8.8817 143.71 8.97022 143.204 8.95497C141.004 8.94338 139.441 7.30308 139.441 5.12954ZM140.483 15.1568H145.693V49.4118H140.483V15.1568Z" fill="#D7DB3D"/>
<path d="M155.825 14.7395H163.988V18.9707H164.451C165.841 16.3914 169.257 13.8991 174.207 13.8991C181.965 13.8991 186.712 19.3764 186.712 26.7375V49.4003H178.144V28.969C178.144 24.7378 175.452 21.9267 171.486 21.9267C167.346 21.9267 164.365 25.2305 164.365 29.5776V49.4003H155.796V14.7395H155.825Z" fill="#E9547F"/>
<path d="M192.936 32.2264C192.936 21.3007 199.391 13.7657 208.741 13.7657C214.213 13.7657 217.368 16.7218 218.555 18.5765H219.076V14.6062H229.265V49.4118H219.134V45.4589H218.613C217.628 47.0528 214.734 50.2697 209.002 50.2697C199.449 50.2813 192.936 43.1404 192.936 32.2264ZM219.278 32.0235C219.278 26.4882 215.92 23.0105 211.26 23.0105C206.512 23.0105 203.299 26.6911 203.299 32.0235C203.299 37.4139 206.512 41.0365 211.318 41.0365C216.181 41.0365 219.278 37.1531 219.278 32.0235V32.0235Z" fill="#D7DB3D"/>
<path d="M236.039 36.8923V0H248.4V35.2404C248.4 37.4719 249.587 38.5441 251.497 38.5441H252.626V49.4119H248.689C240.584 49.4119 236.039 44.5895 236.039 36.8923Z" fill="#44B393"/>
<path d="M256.244 38.3993H267.375C267.519 40.1091 269.141 41.0365 271.862 41.0365C274.496 41.0365 276.088 40.312 276.088 39.0078C276.088 34.1391 256.809 40.7757 256.809 25.2421C256.809 19.3011 261.759 13.5049 271.891 13.5049C280.72 13.5049 286.77 17.4463 287.175 25.1551H276.696C276.377 23.5032 274.93 22.373 272.093 22.373C269.459 22.373 267.867 23.2424 267.867 24.6045C267.867 28.8936 288.014 22.2861 288.014 38.3123C288.014 45.0938 282.63 50.2523 271.891 50.2523C261.05 50.2813 256.331 45.7893 256.244 38.3993Z" fill="#48539F"/>
<path d="M23.5345 50.4262C10.2186 50.4262 0.144775 40.0801 0.144775 26.3723C0.144775 19.8517 2.51848 13.7948 6.80273 9.33176C11.1449 4.81079 17.0791 2.31847 23.5345 2.31847C26.662 2.29168 29.7621 2.9051 32.6443 4.1211C35.5265 5.33709 38.1301 7.12998 40.2951 9.38972C44.5794 13.8817 46.9242 19.9097 46.9242 26.4013C46.9242 32.893 44.5504 38.9789 40.2662 43.4419C35.9241 47.9339 30.0043 50.4262 23.5345 50.4262ZM23.5345 3.24584C10.7396 3.24584 1.10005 13.1862 1.10005 26.3723C1.10005 32.7481 3.35796 38.6311 7.46853 42.8623C11.5791 47.0934 17.3107 49.4698 23.5345 49.4698C29.7582 49.4698 35.4898 47.1224 39.6004 42.8623C43.711 38.6021 45.9689 32.7481 45.9689 26.3723C45.9689 13.1572 36.3004 3.24584 23.5345 3.24584V3.24584Z" fill="#48539F"/>
<path d="M23.5344 2.43438C36.9661 2.43438 46.7794 13.1862 46.7794 26.3433C46.7794 39.6454 36.9082 50.2523 23.5344 50.2523C10.1027 50.2523 0.289476 39.7613 0.289476 26.3433C0.289476 13.0413 10.1606 2.43438 23.5344 2.43438M23.5344 49.6147C36.5609 49.6147 46.1136 39.5875 46.1136 26.3433C46.1136 13.3021 36.5609 3.07195 23.5344 3.07195C10.508 3.07195 0.955273 13.2731 0.955273 26.3433C0.955273 39.5875 10.479 49.6147 23.5344 49.6147M23.5344 2.14457C17.0502 2.14457 11.058 4.6369 6.6869 9.21583C2.37371 13.7078 0 19.7937 0 26.3723C0 40.1671 10.1027 50.5711 23.5344 50.5711C30.0187 50.5711 36.0108 48.0788 40.3819 43.4998C44.6951 39.0078 47.0833 32.9219 47.0833 26.3318C47.0833 19.8111 44.7096 13.7252 40.4254 9.23322C38.2413 6.9645 35.6186 5.16491 32.7171 3.9442C29.8156 2.72348 26.6961 2.10721 23.5489 2.13298L23.5344 2.14457ZM23.5344 49.3249C17.3396 49.3249 11.6659 46.9775 7.55533 42.7463C3.44477 38.5152 1.24475 32.6901 1.24475 26.3433C1.24475 13.2441 10.8264 3.36176 23.5344 3.36176C36.2424 3.36176 45.8241 13.2441 45.8241 26.3433C45.8241 32.6901 43.5662 38.5152 39.5135 42.7463C35.4029 46.9775 29.7292 49.3249 23.5344 49.3249V49.3249Z" fill="#4955A0"/>
<path d="M58.4453 49.5568V15.012H59.4006V23.0396H59.5453C60.7901 19.1272 64.3506 15.012 70.5744 15.012H72.5718V15.9683H70.5744C63.2506 15.9683 59.4006 22.431 59.4006 28.8067V49.5858H58.4453V49.5568Z" fill="#E9547F"/>
<path d="M72.4269 15.1569V15.8234H70.5743C63.0768 15.8234 59.2557 22.344 59.2557 28.8067V49.4409H58.5899V15.1569H59.2557V23.1845H59.661C60.9636 18.9533 64.611 15.1569 70.5743 15.1569H72.4269M72.7164 14.867H70.5743C67.7084 14.867 65.219 15.7075 63.1637 17.3594C61.5087 18.7371 60.254 20.5348 59.5307 22.5643V14.8265H58.3149V49.6611H59.5597V28.7371C59.5597 25.4334 60.5439 22.3035 62.3387 20.014C64.336 17.4347 67.2019 16.0437 70.5887 16.0437H72.7309V14.8555L72.7164 14.867Z" fill="#E9547F"/>
<path d="M83.6009 49.5568C83.5815 49.558 83.5621 49.5552 83.544 49.5483C83.5259 49.5415 83.5094 49.5309 83.4957 49.5172C83.482 49.5034 83.4714 49.487 83.4645 49.4688C83.4577 49.4506 83.4548 49.4312 83.4561 49.4119V15.1568C83.4548 15.1375 83.4577 15.1181 83.4645 15.0999C83.4714 15.0817 83.482 15.0652 83.4957 15.0515C83.5094 15.0378 83.5259 15.0272 83.544 15.0203C83.5621 15.0135 83.5815 15.0106 83.6009 15.0119H84.2667C84.286 15.0106 84.3054 15.0135 84.3235 15.0203C84.3417 15.0272 84.3581 15.0378 84.3719 15.0515C84.3856 15.0652 84.3962 15.0817 84.403 15.0999C84.4098 15.1181 84.4127 15.1375 84.4114 15.1568V49.4119C84.4127 49.4312 84.4098 49.4506 84.403 49.4688C84.3962 49.487 84.3856 49.5034 84.3719 49.5172C84.3581 49.5309 84.3417 49.5415 84.3235 49.5483C84.3054 49.5552 84.286 49.558 84.2667 49.5568H83.6009ZM83.9482 5.85407C83.7308 5.85679 83.515 5.81593 83.3136 5.73387C83.1122 5.65182 82.9292 5.53025 82.7754 5.37631C82.6217 5.22237 82.5002 5.03918 82.4183 4.83754C82.3363 4.63589 82.2955 4.41986 82.2982 4.20218C82.2955 3.98449 82.3363 3.76846 82.4183 3.56681C82.5002 3.36517 82.6217 3.18198 82.7754 3.02804C82.9292 2.8741 83.1122 2.75253 83.3136 2.67048C83.515 2.58843 83.7308 2.54756 83.9482 2.55028C84.1714 2.54136 84.3941 2.57733 84.6032 2.65609C84.8122 2.73484 85.0034 2.85478 85.1653 3.0088C85.3273 3.16282 85.4567 3.34779 85.546 3.55277C85.6353 3.75775 85.6826 3.97857 85.6851 4.20218C85.6826 4.42578 85.6353 4.64661 85.546 4.85158C85.4567 5.05656 85.3273 5.24153 85.1653 5.39555C85.0034 5.54957 84.8122 5.6695 84.6032 5.74826C84.3941 5.82702 84.1714 5.86299 83.9482 5.85407V5.85407Z" fill="#D7DB3D"/>
<path d="M83.948 2.69521C84.1525 2.68504 84.3569 2.7164 84.5489 2.78742C84.741 2.85844 84.9167 2.96764 85.0654 3.10845C85.2142 3.24925 85.3329 3.41875 85.4145 3.60672C85.4961 3.79469 85.5388 3.99725 85.5401 4.2022C85.5388 4.40715 85.4961 4.60971 85.4145 4.79768C85.3329 4.98566 85.2142 5.15515 85.0654 5.29596C84.9167 5.43676 84.741 5.54596 84.5489 5.61698C84.3569 5.688 84.1525 5.71936 83.948 5.70919C83.7493 5.71313 83.5518 5.67685 83.3674 5.60251C83.1829 5.52817 83.0154 5.41731 82.8749 5.27658C82.7343 5.13585 82.6236 4.96815 82.5493 4.78353C82.4751 4.59892 82.4388 4.40118 82.4427 4.2022C82.4388 4.00322 82.4751 3.80549 82.5493 3.62087C82.6236 3.43625 82.7343 3.26855 82.8749 3.12782C83.0154 2.98709 83.1829 2.87623 83.3674 2.80189C83.5518 2.72755 83.7493 2.69127 83.948 2.69521M84.2664 15.1569V49.4119H83.6007V15.1569H84.2664ZM83.948 2.40541C83.7114 2.40189 83.4764 2.44597 83.2571 2.53502C83.0377 2.62407 82.8385 2.75629 82.6711 2.92384C82.5038 3.0914 82.3717 3.29087 82.2827 3.51046C82.1938 3.73005 82.1498 3.96527 82.1533 4.2022C82.1498 4.43913 82.1938 4.67436 82.2827 4.89394C82.3717 5.11353 82.5038 5.31301 82.6711 5.48056C82.8385 5.64812 83.0377 5.78034 83.2571 5.86939C83.4764 5.95844 83.7114 6.00251 83.948 5.999C84.1905 6.00912 84.4326 5.97023 84.6597 5.88462C84.8869 5.79901 85.0944 5.66846 85.2701 5.50075C85.4457 5.33304 85.5858 5.13161 85.6819 4.90851C85.778 4.6854 85.8283 4.44518 85.8296 4.2022C85.8259 3.95993 85.7741 3.72082 85.6771 3.49882C85.5801 3.27681 85.44 3.07635 85.2649 2.90911C85.0897 2.74187 84.8831 2.6112 84.657 2.52472C84.4309 2.43825 84.1899 2.39769 83.948 2.40541V2.40541ZM84.2664 14.8671H83.6007C83.562 14.8645 83.5232 14.8702 83.4869 14.8839C83.4506 14.8975 83.4177 14.9188 83.3903 14.9462C83.3629 14.9737 83.3416 15.0067 83.328 15.043C83.3144 15.0793 83.3086 15.1181 83.3112 15.1569V49.4119C83.3086 49.4506 83.3144 49.4894 83.328 49.5258C83.3416 49.5621 83.3629 49.5951 83.3903 49.6225C83.4177 49.6499 83.4506 49.6712 83.4869 49.6849C83.5232 49.6985 83.562 49.7043 83.6007 49.7017H84.2664C84.3051 49.7043 84.3439 49.6985 84.3802 49.6849C84.4165 49.6712 84.4494 49.6499 84.4768 49.6225C84.5042 49.5951 84.5255 49.5621 84.5391 49.5258C84.5528 49.4894 84.5585 49.4506 84.5559 49.4119V15.1569C84.5585 15.1181 84.5528 15.0793 84.5391 15.043C84.5255 15.0067 84.5042 14.9737 84.4768 14.9462C84.4494 14.9188 84.4165 14.8975 84.3802 14.8839C84.3439 14.8702 84.3051 14.8645 84.2664 14.8671V14.8671Z" fill="#D7DB3D"/>
<path d="M97.9588 54.9472H101.722C102.706 59.5551 106.933 61.9315 112.519 61.9315C120.683 61.9315 124.967 57.3815 124.967 50.0784V42.6304H124.562C123.433 45.2097 119.496 50.2813 111.796 50.2813C101.722 50.2813 95.0061 42.8333 95.0061 32.3713C95.0061 21.7644 101.722 14.3164 111.535 14.3164C119.033 14.3164 123.172 19.0692 124.446 22.0832H124.851V15.1568H128.788V50.0784C128.788 59.7579 122.477 65.4381 112.519 65.4381C104.154 65.4381 99.0298 61.0621 97.9588 54.9472ZM124.938 32.3423C124.938 23.5902 119.554 17.91 111.969 17.91C104.211 17.91 99.0009 23.851 99.0009 32.3423C99.0009 40.9785 104.211 46.7167 112.027 46.7167C120.133 46.7167 124.952 40.1961 124.952 32.3423H124.938Z" fill="#44B393"/>
<path d="M139.441 5.12954C139.43 4.63186 139.52 4.13717 139.706 3.67526C139.891 3.21334 140.168 2.79376 140.519 2.44177C140.871 2.08978 141.29 1.81266 141.751 1.62711C142.213 1.44155 142.707 1.35139 143.204 1.36207C143.705 1.34548 144.205 1.43115 144.672 1.61387C145.139 1.79658 145.565 2.07253 145.922 2.42492C146.279 2.77732 146.562 3.19881 146.751 3.66376C146.941 4.12871 147.034 4.62741 147.025 5.12954C147.04 5.63604 146.952 6.1403 146.765 6.61132C146.579 7.08234 146.298 7.51016 145.94 7.86847C145.582 8.22678 145.155 8.508 144.684 8.69485C144.214 8.8817 143.71 8.97022 143.204 8.95497C141.004 8.94338 139.441 7.30308 139.441 5.12954ZM140.483 15.1568H145.693V49.4118H140.483V15.1568Z" fill="#D7DB3D"/>
<path d="M155.825 14.7395H163.988V18.9707H164.451C165.841 16.3914 169.257 13.8991 174.207 13.8991C181.965 13.8991 186.712 19.3764 186.712 26.7375V49.4003H178.144V28.969C178.144 24.7378 175.452 21.9267 171.486 21.9267C167.346 21.9267 164.365 25.2305 164.365 29.5776V49.4003H155.796V14.7395H155.825Z" fill="#E9547F"/>
<path d="M192.936 32.2264C192.936 21.3007 199.391 13.7657 208.741 13.7657C214.213 13.7657 217.368 16.7218 218.555 18.5765H219.076V14.6062H229.265V49.4118H219.134V45.4589H218.613C217.628 47.0528 214.734 50.2697 209.002 50.2697C199.449 50.2813 192.936 43.1404 192.936 32.2264ZM219.278 32.0235C219.278 26.4882 215.92 23.0105 211.26 23.0105C206.512 23.0105 203.299 26.6911 203.299 32.0235C203.299 37.4139 206.512 41.0365 211.318 41.0365C216.181 41.0365 219.278 37.1531 219.278 32.0235V32.0235Z" fill="#D7DB3D"/>
<path d="M236.039 36.8923V0H248.4V35.2404C248.4 37.4719 249.587 38.5441 251.497 38.5441H252.626V49.4119H248.689C240.584 49.4119 236.039 44.5895 236.039 36.8923Z" fill="#44B393"/>
<path d="M256.244 38.3993H267.375C267.519 40.1091 269.141 41.0365 271.862 41.0365C274.496 41.0365 276.088 40.312 276.088 39.0078C276.088 34.1391 256.809 40.7757 256.809 25.2421C256.809 19.3011 261.759 13.5049 271.891 13.5049C280.72 13.5049 286.77 17.4463 287.175 25.1551H276.696C276.377 23.5032 274.93 22.373 272.093 22.373C269.459 22.373 267.867 23.2424 267.867 24.6045C267.867 28.8936 288.014 22.2861 288.014 38.3123C288.014 45.0938 282.63 50.2523 271.891 50.2523C261.05 50.2813 256.331 45.7893 256.244 38.3993Z" fill="#48539F"/>
<path d="M156.288 56.1817C156.284 56.0969 156.298 56.0122 156.328 55.9329C156.359 55.8537 156.406 55.7818 156.466 55.7217C156.526 55.6617 156.597 55.6148 156.677 55.5843C156.756 55.5537 156.84 55.54 156.925 55.5442C157.012 55.5372 157.099 55.5486 157.181 55.5778C157.263 55.6069 157.338 55.6532 157.401 55.7134C157.464 55.7736 157.513 55.8465 157.546 55.9272C157.579 56.0079 157.594 56.0947 157.591 56.1817C157.595 56.2704 157.581 56.3589 157.549 56.4416C157.517 56.5244 157.468 56.5995 157.405 56.6623C157.342 56.725 157.267 56.7739 157.185 56.806C157.102 56.838 157.014 56.8524 156.925 56.8483C156.839 56.8492 156.753 56.8324 156.674 56.7988C156.594 56.7653 156.522 56.7157 156.462 56.6533C156.403 56.5908 156.356 56.5167 156.326 56.4356C156.297 56.3545 156.284 56.2681 156.288 56.1817ZM156.491 58.2973H157.301V65.3686H156.505L156.491 58.2973Z" fill="white"/>
<path d="M159.849 58.3089H160.659V59.4681H160.746C160.957 59.0537 161.281 58.708 161.681 58.4718C162.081 58.2357 162.54 58.1188 163.004 58.135C164.654 58.135 165.667 59.3522 165.667 60.8592V65.3802H164.857V60.9172C164.86 60.6511 164.81 60.3871 164.709 60.1409C164.608 59.8948 164.459 59.6716 164.27 59.4848C164.08 59.298 163.855 59.1514 163.608 59.054C163.361 58.9565 163.096 58.9101 162.83 58.9175C162.542 58.9155 162.257 58.9713 161.991 59.0817C161.724 59.192 161.483 59.3547 161.281 59.56C161.078 59.7653 160.919 60.0091 160.812 60.2771C160.706 60.545 160.654 60.8316 160.659 61.12V65.4092H159.849V58.3089Z" fill="white"/>
<path d="M168.852 63.2646V59.0044H167.52V58.3089H168.62C168.659 58.3115 168.697 58.3057 168.734 58.2921C168.77 58.2784 168.803 58.2571 168.83 58.2297C168.858 58.2023 168.879 58.1693 168.893 58.133C168.906 58.0966 168.912 58.0578 168.91 58.0191V56.2513H169.691V58.3089H171.862V59.0044H169.691V63.2356C169.691 64.134 170.096 64.6556 171.023 64.6556H171.804V65.3802H170.979C169.662 65.3802 168.852 64.6556 168.852 63.2646Z" fill="white"/>
<path d="M173.367 61.8445C173.367 59.584 174.902 58.135 176.812 58.135C178.954 58.135 180.228 59.7 180.228 61.7286V62.1633H174.207C174.236 63.6993 175.278 64.8295 176.87 64.8295C177.999 64.8295 178.983 64.2209 179.302 63.3225H180.17C179.765 64.6556 178.549 65.583 176.87 65.583C174.757 65.554 173.367 63.9601 173.367 61.8445ZM179.374 61.3982C179.316 59.7753 178.245 58.8769 176.827 58.8769C176.154 58.879 175.509 59.1434 175.028 59.6142C174.546 60.085 174.268 60.725 174.25 61.3982H179.374Z" fill="white"/>
<path d="M182.283 58.3089H183.094V59.7289H183.181C183.326 59.3148 183.597 58.956 183.954 58.7017C184.312 58.4475 184.739 58.3103 185.178 58.3089H185.742V59.1204H185.221C183.861 59.1204 183.108 60.2216 183.108 61.5837V65.3802H182.298V58.3089H182.283Z" fill="white"/>
<path d="M187.639 58.3089H188.449V59.4681H188.536C188.746 59.0537 189.071 58.708 189.471 58.4718C189.871 58.2357 190.33 58.1188 190.794 58.135C192.444 58.135 193.457 59.3522 193.457 60.8592V65.3802H192.647V60.9172C192.65 60.6511 192.6 60.3871 192.499 60.1409C192.398 59.8948 192.249 59.6716 192.059 59.4848C191.87 59.298 191.645 59.1514 191.398 59.054C191.15 58.9565 190.886 58.9101 190.62 58.9175C190.332 58.9155 190.047 58.9713 189.78 59.0817C189.514 59.192 189.273 59.3547 189.07 59.56C188.868 59.7653 188.709 60.0091 188.602 60.2771C188.495 60.545 188.443 60.8316 188.449 61.12V65.4092H187.639V58.3089Z" fill="white"/>
<path d="M195.541 63.4095H196.323C196.439 64.3658 197.162 64.8585 198.262 64.8585C199.449 64.8585 200.144 64.3369 200.144 63.4674C200.144 61.2649 195.744 62.8299 195.744 60.0767C195.744 58.9175 196.786 58.164 198.233 58.164C199.536 58.164 200.607 58.8885 200.723 60.1637H199.941C199.854 59.3522 199.218 58.8595 198.176 58.8595C197.191 58.8595 196.525 59.3522 196.525 60.0767C196.525 62.0764 200.954 60.5114 200.954 63.4385C200.954 64.7716 199.854 65.583 198.233 65.583C196.612 65.583 195.657 64.6846 195.541 63.4095Z" fill="white"/>
<path d="M203.241 55.179H204.052V59.4681H204.139C204.457 58.7436 205.268 58.135 206.426 58.135C208.076 58.135 209.089 59.3522 209.089 60.8592V65.3802H208.278V60.9172C208.281 60.6489 208.229 60.383 208.126 60.1354C208.023 59.8878 207.87 59.6637 207.678 59.4768C207.486 59.2898 207.258 59.1439 207.008 59.0477C206.758 58.9516 206.491 58.9073 206.223 58.9175C205.937 58.911 205.653 58.9615 205.387 59.0663C205.121 59.171 204.878 59.3278 204.673 59.5275C204.468 59.7271 204.305 59.9657 204.194 60.2292C204.082 60.4927 204.024 60.7758 204.023 61.0621V65.4092H203.212V55.179H203.241Z" fill="white"/>
<path d="M211.462 56.1817C211.458 56.0969 211.472 56.0122 211.502 55.9329C211.533 55.8537 211.58 55.7818 211.64 55.7217C211.7 55.6617 211.772 55.6148 211.851 55.5843C211.93 55.5537 212.015 55.54 212.099 55.5442C212.186 55.5372 212.273 55.5486 212.355 55.5778C212.437 55.6069 212.512 55.6532 212.575 55.7134C212.638 55.7736 212.687 55.8465 212.72 55.9272C212.753 56.0079 212.768 56.0947 212.765 56.1817C212.769 56.2704 212.755 56.3589 212.723 56.4416C212.691 56.5244 212.642 56.5995 212.579 56.6623C212.517 56.725 212.441 56.7739 212.359 56.806C212.276 56.838 212.188 56.8524 212.099 56.8483C212.013 56.8492 211.927 56.8324 211.848 56.7988C211.768 56.7653 211.696 56.7157 211.636 56.6533C211.577 56.5908 211.531 56.5167 211.501 56.4356C211.471 56.3545 211.458 56.2681 211.462 56.1817V56.1817ZM211.665 58.2973H212.476V65.3686H211.665V58.2973Z" fill="white"/>
<path d="M215.023 58.3089H215.805V59.7H215.891C216.135 59.2141 216.512 58.8084 216.979 58.531C217.446 58.2536 217.983 58.1161 218.526 58.135C220.61 58.135 221.999 59.671 221.999 61.8445C221.999 64.0181 220.61 65.583 218.584 65.583C218.033 65.6053 217.488 65.4665 217.015 65.1834C216.542 64.9003 216.161 64.4852 215.92 63.9891H215.848V68.5101H215.037L215.023 58.3089ZM221.16 61.8445C221.16 60.0477 220.089 58.8885 218.468 58.8885C216.789 58.8885 215.805 60.2216 215.805 61.8445C215.805 63.6413 216.933 64.8295 218.468 64.8295C220.089 64.8005 221.16 63.5834 221.16 61.8445V61.8445Z" fill="white"/>
<path d="M228.006 58.3089H228.788V59.7H228.875C229.118 59.2141 229.496 58.8084 229.963 58.531C230.429 58.2536 230.966 58.1161 231.509 58.135C233.593 58.135 234.982 59.671 234.982 61.8445C234.982 64.0181 233.593 65.583 231.567 65.583C231.016 65.6053 230.471 65.4665 229.998 65.1834C229.525 64.9003 229.145 64.4852 228.903 63.9891H228.817V68.5101H228.006V58.3089ZM234.143 61.8445C234.143 60.0477 233.072 58.8885 231.451 58.8885C229.772 58.8885 228.788 60.2216 228.788 61.8445C228.788 63.6413 229.917 64.8295 231.451 64.8295C233.057 64.8005 234.129 63.5834 234.129 61.8445H234.143Z" fill="white"/>
<path d="M236.994 58.3089H237.805V59.7289H237.892C238.037 59.3148 238.308 58.956 238.665 58.7017C239.023 58.4475 239.45 58.3103 239.889 58.3089H240.453V59.1204H239.932C238.572 59.1204 237.819 60.2216 237.819 61.5837V65.3802H237.009V58.3089H236.994Z" fill="white"/>
<path d="M241.568 61.8446C241.551 61.3554 241.635 60.8679 241.813 60.4122C241.992 59.9564 242.261 59.5421 242.606 59.1946C242.95 58.8471 243.362 58.5739 243.816 58.3916C244.269 58.2094 244.756 58.1221 245.244 58.135C245.733 58.1242 246.218 58.213 246.671 58.3959C247.124 58.5789 247.534 58.8522 247.878 59.1993C248.222 59.5463 248.492 59.9598 248.671 60.4146C248.851 60.8694 248.935 61.3559 248.921 61.8446C248.935 62.3332 248.851 62.8198 248.671 63.2745C248.492 63.7293 248.222 64.1428 247.878 64.4899C247.534 64.8369 247.124 65.1102 246.671 65.2932C246.218 65.4761 245.733 65.5649 245.244 65.5541C244.756 65.567 244.269 65.4797 243.816 65.2975C243.362 65.1152 242.95 64.842 242.606 64.4945C242.261 64.147 241.992 63.7327 241.813 63.277C241.635 62.8212 241.551 62.3338 241.568 61.8446V61.8446ZM248.052 61.8446C248.052 60.1347 246.865 58.8885 245.215 58.8885C243.565 58.8885 242.379 60.1637 242.379 61.8446C242.379 63.5254 243.565 64.8006 245.215 64.8006C246.865 64.8006 248.052 63.5544 248.052 61.8446Z" fill="white"/>
<path d="M250.947 66.5394H251.743C251.946 67.4957 252.814 67.9884 253.972 67.9884C255.651 67.9884 256.548 67.061 256.548 65.525V63.9891H256.461C256.218 64.475 255.84 64.8807 255.373 65.1581C254.907 65.4355 254.37 65.5729 253.827 65.554C251.743 65.554 250.354 64.0181 250.354 61.8445C250.354 59.671 251.743 58.106 253.769 58.106C254.32 58.0837 254.865 58.2226 255.338 58.5057C255.811 58.7888 256.191 59.2038 256.433 59.7H256.519V58.2799H257.33V65.4961C257.33 67.4957 256.027 68.6549 253.972 68.6549C252.221 68.6839 251.164 67.7739 250.947 66.5394ZM256.505 61.8445C256.505 60.0477 255.405 58.8595 253.842 58.8595C252.279 58.8595 251.179 60.0767 251.179 61.8445C251.179 63.6123 252.25 64.8005 253.871 64.8005C255.492 64.8005 256.505 63.4674 256.505 61.8445V61.8445Z" fill="white"/>
<path d="M259.848 58.3089H260.659V59.7289H260.746C260.892 59.3148 261.162 58.956 261.519 58.7017C261.877 58.4475 262.305 58.3103 262.743 58.3089H263.293V59.1204H262.772C261.412 59.1204 260.659 60.2216 260.659 61.5837V65.3802H259.848V58.3089Z" fill="white"/>
<path d="M264.379 61.8445C264.379 59.642 265.768 58.106 267.794 58.106C268.345 58.0837 268.89 58.2226 269.363 58.5057C269.836 58.7888 270.217 59.2038 270.458 59.7H270.545V58.2799H271.355V65.3512H270.573V63.9601H270.487C270.243 64.446 269.866 64.8517 269.399 65.1291C268.932 65.4065 268.395 65.5439 267.852 65.525C265.768 65.554 264.379 64.0065 264.379 61.8445ZM270.573 61.8445C270.573 60.0477 269.473 58.8595 267.91 58.8595C266.347 58.8595 265.247 60.0767 265.247 61.8445C265.247 63.6123 266.318 64.8005 267.939 64.8005C269.56 64.8005 270.573 63.4674 270.573 61.8445Z" fill="white"/>
<path d="M273.874 58.3089H274.684V59.4392H274.771C274.954 59.0278 275.256 58.6809 275.637 58.4432C276.019 58.2055 276.464 58.0881 276.913 58.1061C278.071 58.1061 278.881 58.6857 279.229 59.5551H279.316C279.505 59.1101 279.826 58.7332 280.234 58.4744C280.642 58.2157 281.12 58.0872 281.603 58.1061C283.195 58.1061 284.179 59.2363 284.179 60.7143V65.3512H283.368V60.9751C283.368 59.671 282.645 58.8596 281.458 58.8596C280.329 58.8596 279.46 59.729 279.46 61.0621V65.3512H278.664V60.8186C278.677 60.559 278.636 60.2995 278.543 60.0567C278.45 59.8138 278.308 59.5929 278.126 59.4077C277.944 59.2225 277.725 59.0772 277.484 58.9808C277.243 58.8845 276.984 58.8392 276.725 58.848C275.567 58.848 274.727 59.7753 274.727 61.0215V65.3396H273.917V58.2973L273.874 58.3089Z" fill="white"/>
<path d="M157.374 80.3051H157.287V81.6846H156.505V71.4835H157.316V76.0334H157.403C157.663 75.3958 158.503 74.4395 160.066 74.4395C162.092 74.4395 163.482 75.9754 163.482 78.178C163.482 80.3805 162.092 81.8875 160.008 81.8875C159.463 81.9088 158.923 81.7705 158.455 81.4894C157.987 81.2084 157.612 80.7968 157.374 80.3051V80.3051ZM162.642 78.1896C162.642 76.4217 161.571 75.2046 159.979 75.2046C158.387 75.2046 157.316 76.3638 157.316 78.1896C157.316 79.8125 158.3 81.1456 159.979 81.1456C161.557 81.1456 162.628 79.9458 162.628 78.1896H162.642Z" fill="white"/>
<path d="M165.088 84.1016H165.523C165.85 84.1211 166.175 84.0285 166.443 83.8389C166.712 83.6493 166.908 83.3741 166.999 83.0583L167.404 82.015L164.48 74.6249H165.378L167.809 80.8847H167.896L170.299 74.6249H171.196L167.723 83.3191C167.346 84.2465 166.796 84.8261 165.667 84.8261H165.088V84.1016Z" fill="white"/>
<path d="M177.102 72.1906H177.941V76.4681H183.296V72.179H184.136V81.7136H183.296V77.2622H177.941V81.7252H177.102V72.1906Z" fill="white"/>
<path d="M186.336 78.1606C186.318 77.6704 186.4 77.1817 186.578 76.7246C186.755 76.2675 187.025 75.8518 187.369 75.503C187.714 75.1543 188.126 74.88 188.581 74.6971C189.035 74.5141 189.523 74.4265 190.012 74.4395C190.501 74.4287 190.986 74.5174 191.439 74.7004C191.892 74.8833 192.302 75.1567 192.646 75.5037C192.99 75.8508 193.26 76.2643 193.439 76.719C193.619 77.1738 193.703 77.6603 193.689 78.149C193.703 78.6377 193.619 79.1242 193.439 79.579C193.26 80.0338 192.99 80.4473 192.646 80.7943C192.302 81.1414 191.892 81.4147 191.439 81.5976C190.986 81.7806 190.501 81.8694 190.012 81.8585C187.899 81.8991 186.336 80.3052 186.336 78.1606ZM192.849 78.1606C192.849 76.4507 191.662 75.2046 190.012 75.2046C188.362 75.2046 187.19 76.4681 187.19 78.1606C187.19 79.8531 188.377 81.1166 190.027 81.1166C191.677 81.1166 192.849 79.8994 192.849 78.1606Z" fill="white"/>
<path d="M195.715 82.8439H196.496C196.699 83.8002 197.567 84.2929 198.725 84.2929C200.404 84.2929 201.302 83.3655 201.302 81.8296V80.2936H201.215C200.971 80.7795 200.594 81.1852 200.127 81.4626C199.66 81.74 199.123 81.8774 198.581 81.8585C196.496 81.8585 195.107 80.3226 195.107 78.149C195.107 75.9755 196.496 74.4105 198.523 74.4105C199.073 74.3882 199.619 74.5271 200.092 74.8102C200.565 75.0933 200.945 75.5083 201.186 76.0045H201.273V74.5844H202.083V81.8296C202.083 83.8292 200.781 84.9884 198.725 84.9884C196.989 85.029 195.946 84.1306 195.715 82.8439ZM201.302 78.178C201.302 76.3812 200.202 75.193 198.639 75.193C197.075 75.193 195.975 76.4102 195.975 78.178C195.975 79.9458 197.046 81.134 198.668 81.134C200.289 81.134 201.302 79.8125 201.302 78.1896V78.178Z" fill="white"/>
<path d="M203.994 78.1895C203.994 75.987 205.383 74.4511 207.41 74.4511C207.96 74.4287 208.506 74.5676 208.979 74.8507C209.452 75.1338 209.832 75.5488 210.073 76.045H210.16V74.6249H210.97V81.6846H210.189V80.2935H210.102C209.858 80.7794 209.481 81.1851 209.014 81.4625C208.547 81.7399 208.01 81.8774 207.468 81.8585C205.383 81.8991 203.994 80.3631 203.994 78.1895ZM210.189 78.1895C210.189 76.3928 209.089 75.2045 207.526 75.2045C205.962 75.2045 204.862 76.4217 204.862 78.1895C204.862 79.9574 205.933 81.1456 207.554 81.1456C209.176 81.1456 210.189 79.8125 210.189 78.1895V78.1895Z" fill="white"/>
<path d="M213.532 74.6249H214.343V76.045H214.43C214.575 75.6308 214.846 75.272 215.203 75.0178C215.561 74.7635 215.988 74.6263 216.427 74.6249H216.977V75.4364H216.456C215.095 75.4364 214.343 76.5377 214.343 77.8997V81.6846H213.532V74.6249Z" fill="white"/>
<path d="M219.539 79.5806V75.3089H218.207V74.6133H219.322C219.36 74.6159 219.399 74.6102 219.435 74.5965C219.472 74.5829 219.505 74.5616 219.532 74.5342C219.56 74.5067 219.581 74.4737 219.594 74.4374C219.608 74.4011 219.614 74.3623 219.611 74.3235V72.5557H220.393V74.6133H222.564V75.3089H220.393V79.5516C220.393 80.45 220.798 80.9717 221.724 80.9717H222.506V81.6846H221.667C220.32 81.7252 219.539 81.0007 219.539 79.5806Z" fill="white"/>
<path d="M224.663 71.4951H225.473V75.7842H225.56C225.878 75.0597 226.689 74.4511 227.847 74.4511C229.497 74.4511 230.51 75.6683 230.51 77.1752V81.6846H229.699V77.2332C229.702 76.965 229.65 76.699 229.547 76.4514C229.444 76.2038 229.292 75.9798 229.099 75.7928C228.907 75.6059 228.679 75.4599 228.429 75.3638C228.179 75.2676 227.912 75.2233 227.644 75.2335C227.358 75.227 227.074 75.2776 226.808 75.3823C226.542 75.487 226.299 75.6438 226.094 75.8435C225.89 76.0432 225.727 76.2817 225.615 76.5452C225.503 76.8087 225.445 77.0919 225.444 77.3781V81.7252H224.634V71.4951H224.663Z" fill="white"/>
<path d="M237.168 72.1906H240.207C241.944 72.1906 242.986 73.2339 242.986 74.625C242.996 75.0582 242.877 75.4845 242.645 75.8505C242.413 76.2165 242.079 76.5059 241.684 76.6826V76.7579C242.166 76.9024 242.586 77.2026 242.879 77.6116C243.172 78.0205 243.322 78.5153 243.305 79.0184C243.305 80.7573 241.973 81.6846 240.41 81.6846H237.168V72.179V72.1906ZM240.236 76.4218C241.307 76.4218 242.118 75.6973 242.118 74.6829C242.118 73.6686 241.336 72.9441 240.207 72.9441H237.978V76.4218H240.236ZM240.265 80.9717C241.481 80.9717 242.436 80.3341 242.436 79.001C242.436 77.7549 241.423 77.1173 240.236 77.1173H237.978V80.9717H240.265Z" fill="white"/>
<path d="M245.389 74.6249H246.2V76.045H246.287C246.432 75.6308 246.703 75.272 247.06 75.0178C247.418 74.7635 247.845 74.6263 248.284 74.6249H248.848V75.4364H248.327C246.967 75.4364 246.214 76.5377 246.214 77.8997V81.6846H245.404V74.6249H245.389Z" fill="white"/>
<path d="M249.934 78.1895C249.934 75.987 251.323 74.4511 253.35 74.4511C253.9 74.4287 254.445 74.5676 254.918 74.8507C255.391 75.1338 255.772 75.5488 256.013 76.045H256.1V74.6249H256.91V81.6846H256.129V80.2935H256.042C255.798 80.7794 255.421 81.1851 254.954 81.4625C254.487 81.7399 253.95 81.8774 253.408 81.8585C251.323 81.8991 249.934 80.3631 249.934 78.1895ZM256.129 78.1895C256.129 76.3928 255.029 75.2045 253.465 75.2045C251.902 75.2045 250.802 76.4217 250.802 78.1895C250.802 79.9574 251.873 81.1456 253.494 81.1456C255.115 81.1456 256.129 79.8125 256.129 78.1895Z" fill="white"/>
<path d="M259.023 80.9717L263.25 75.4074V75.3089H259.081V74.6133H264.205V75.3379L259.979 80.9021V80.9891H264.263V81.6846H258.994V80.9601L259.023 80.9717Z" fill="white"/>
<path d="M266.289 72.5094C266.285 72.4246 266.299 72.3398 266.329 72.2606C266.36 72.1813 266.407 72.1094 266.467 72.0493C266.527 71.9893 266.598 71.9425 266.678 71.9119C266.757 71.8813 266.841 71.8677 266.926 71.8718C267.013 71.8648 267.1 71.8763 267.182 71.9054C267.264 71.9346 267.339 71.9808 267.402 72.041C267.465 72.1012 267.514 72.1741 267.547 72.2548C267.58 72.3356 267.595 72.4223 267.592 72.5094C267.596 72.598 267.582 72.6865 267.55 72.7693C267.518 72.852 267.469 72.9272 267.406 72.9899C267.343 73.0526 267.268 73.1016 267.186 73.1336C267.103 73.1657 267.015 73.1801 266.926 73.1759C266.84 73.1769 266.754 73.16 266.675 73.1265C266.595 73.0929 266.523 73.0434 266.463 72.9809C266.404 72.9184 266.357 72.8443 266.327 72.7632C266.298 72.6821 266.285 72.5957 266.289 72.5094ZM266.492 74.625H267.302V81.6846H266.506L266.492 74.625Z" fill="white"/>
<path d="M269.85 80.3921V71.4951H270.66V80.3921C270.66 80.7688 270.863 81.0007 271.181 81.0007H271.471V81.7252H271.066C270.313 81.7252 269.85 81.2325 269.85 80.3921Z" fill="white"/>
</g>
<defs>
<clipPath id="clip0_1716_2945">
<rect width="288" height="85" fill="white"/>
</clipPath>
</defs>
</svg>
