<svg width="49" height="40" viewBox="0 0 49 40" fill="none" xmlns="http://www.w3.org/2000/svg">
<path fill-rule="evenodd" clip-rule="evenodd" d="M24.5 24.2C24.9 23.9 25.4 23.6 25.8 23.3C30.4 19.7 32.8 15.9 32.8 11.8C32.8 7.40002 30.6 4.00003 27.2 2.80002C24.3 1.80002 21.4 2.60002 19.7 4.90002L18.9 6.00002L18.1 4.90002C16.4 2.60002 13.4 1.80002 10.5 2.80002C7.1 4.00003 4.9 7.40002 4.9 11.8C4.9 14.9 6.2 17.8 8.8 20.6C9.4 20.3 10.1 20.1 10.7 20.1H20.5C22.7 20.1 24.4 21.9 24.4 24C24.5 24 24.5 24.1 24.5 24.2ZM7.4 22H3.9C1.8 22 0 20.2 0 18C0 16.1 1.3 14.5 3.2 14.1C3 13.3 3 12.5 3 11.7C3 6.50002 5.7 2.40002 9.9 0.900025C13.2 -0.299975 16.6 0.500025 18.9 2.80002C21.2 0.500025 24.6 -0.199975 27.8 0.900025C31 2.00002 33.4 4.70003 34.3 8.30002C42.5 9.00002 49 15.7 49 23.9C49 32.6 41.7 39.6 32.8 39.6H19.6C17.5 39.6 15.7 37.9 15.7 35.7C15.7 35 15.9 34.3 16.2 33.7H13.7C11.5 33.7 9.8 31.9 9.8 29.8C9.8 29.1 10 28.4 10.3 27.8C8.1 27.6 6.6 25.6 6.8 23.5C6.9 22.9 7.1 22.4 7.4 22ZM10.8 25.9H20.6C21.7 25.9 22.6 25 22.6 23.9C22.6 22.8 21.7 21.9 20.6 21.9H10.8C9.7 21.9 8.8 22.8 8.8 23.9C8.8 25 9.7 25.9 10.8 25.9ZM13.7 27.8C12.6 27.8 11.7 28.7 11.7 29.8C11.7 30.9 12.6 31.8 13.7 31.8H23.5C24.6 31.8 25.5 30.9 25.5 29.8C25.5 28.7 24.6 27.8 23.5 27.8C23.5 27.8 13.7 27.8 13.7 27.8ZM27.4 29.8C27.4 30.5 27.2 31.2 26.9 31.8H29.4C31.5 31.8 33.3 33.5 33.3 35.7C33.3 36.4 33.1 37.1 32.8 37.7C40.7 37.7 47 31.5 47 24C47 17 41.6 11.2 34.6 10.4C34.6 10.9 34.7 11.4 34.7 11.8C34.7 16.6 32 21 27 24.9C26.4 25.4 25.8 25.8 25.1 26.3C26.5 26.8 27.4 28.2 27.4 29.8ZM19.6 37.6H29.4C30.5 37.6 31.4 36.7 31.4 35.6C31.4 34.5 30.5 33.6 29.4 33.6H19.6C18.5 33.6 17.6 34.5 17.6 35.6C17.6 36.8 18.5 37.6 19.6 37.6ZM3.7 16.1C2.7 16.2 2 17 2 18C2 19.1 2.9 20 4 20H5.9C4.9 18.7 4.2 17.4 3.7 16.1Z" fill="#E95F7F"/>
</svg>
