<svg width="29" height="45" viewBox="0 0 29 45" fill="none" xmlns="http://www.w3.org/2000/svg">
<path fill-rule="evenodd" clip-rule="evenodd" d="M27 32.481V14.5217C27 12.3267 26.4001 11.4287 25.2001 11.4287C24.0001 11.4287 23.4 12.3267 23.4 14.5217V21.5059C23.4 22.0047 23 22.4038 22.5 22.4038C22 22.4038 21.6 22.0047 21.6 21.5059V14.5217C21.6 14.422 21.6 14.3222 21.6 14.2224V14.1226V8.33577C21.6 6.14075 21 5.24279 19.8 5.24279C18.6 5.24279 18 6.14075 18 8.33577V21.5059C18 22.0047 17.6 22.4038 17.1 22.4038C16.6 22.4038 16.2 22.0047 16.2 21.5059V8.33577C16.2 8.23599 16.2 8.13622 16.2 8.03645V7.93667V5.64188C16.2 3.44686 15.6 2.5489 14.4 2.5489C13.2 2.5489 12.6 3.44686 12.6 5.64188V21.4061C12.6 21.905 12.2 22.3041 11.7 22.3041C11.2 22.3041 10.8 21.905 10.8 21.4061V7.8369C10.8 5.64188 10.2 4.74392 9.00002 4.74392C7.80001 4.74392 7.20001 5.64188 7.20001 7.8369V29.7871C7.20001 30.2859 6.80001 30.685 6.30001 30.685C5.80001 30.685 5.40001 30.2859 5.40001 29.7871V22.8029C5.40001 20.6079 4.80001 19.7099 3.60001 19.7099C2.4 19.7099 1.8 20.6079 1.8 22.8029V32.481C1.8 38.7667 6.90001 43.057 14.4 43.057C21.9 42.9572 27 38.6669 27 32.481ZM28.8001 33.778C28.2 40.4628 22.4 44.7531 14.4 44.7531C5.90001 44.7531 0 39.7644 0 32.481V22.8029C0 19.7099 1.2 18.0138 3.60001 18.0138C4.30001 18.0138 4.90001 18.2133 5.40001 18.4129V7.8369C5.40001 4.74392 6.60001 3.04777 9.00002 3.04777C9.80002 3.04777 10.5 3.24732 11 3.64641C11.5 1.85049 12.6 0.852753 14.4 0.852753C16.3 0.852753 17.5 1.95026 17.9 4.04551C18.4 3.64641 19.1 3.54664 19.8 3.54664C22.2 3.54664 23.4 5.34256 23.4 8.33577V10.1317C23.9 9.83237 24.5001 9.7326 25.2001 9.7326C27.6001 9.7326 28.8001 11.5285 28.8001 14.5217V33.778V33.778Z" fill="#E95F7F"/>
</svg>
