<svg width="29" height="44" viewBox="0 0 29 44" fill="none" xmlns="http://www.w3.org/2000/svg">
<path fill-rule="evenodd" clip-rule="evenodd" d="M21.5 22.9001V6.2001C21.5 5.2001 20.7 4.4001 19.7 4.4001C18.7 4.4001 18 5.2001 18 6.2001V19.4001C18 19.9001 17.6 20.3001 17.1 20.3001C16.6 20.3001 16.2 19.9001 16.2 19.4001V3.5001C16.2 2.5001 15.4 1.7001 14.4 1.7001C13.4 1.7001 12.6 2.5001 12.6 3.5001V19.3001C12.6 19.8001 12.2 20.2001 11.7 20.2001C11.2 20.2001 10.8 19.8001 10.8 19.3001V6.2001C10.8 5.2001 10 4.4001 9.00003 4.4001C8.00003 4.4001 7.20003 5.2001 7.20003 6.2001V24.7001C7.20003 26.6001 5.70003 28.2001 3.70003 28.2001C3.00003 28.2001 2.50002 28.0001 1.90002 27.7001V29.5001C1.90002 36.4001 7.50003 42.3001 14.7 42.3001C21.6 42.3001 26.1 36.8001 26.1 29.5001C26.1 26.6001 24.6 24.7001 21.3 24.7001H13.8C12.8 24.7001 12 25.5001 12 26.5001C12 27.5001 12.8 28.3001 13.8 28.3001H22.2C22.7 28.3001 23.1 28.7001 23.1 29.2001C23.1 29.7001 22.7 30.1001 22.2 30.1001H13.8C11.9 30.1001 10.3 28.5001 10.3 26.6001C10.3 24.7001 11.8 23.1001 13.8 23.1001C14.1 22.9001 21.5 22.9001 21.5 22.9001ZM28.1 29.5001C28.1 37.6001 22.8 44.0001 14.9 44.0001C6.70002 44.0001 0.400024 37.3001 0.400024 29.5001V16.7001C0.400024 14.8001 2.00002 13.2001 3.90002 13.2001C4.50002 13.2001 5.10003 13.4001 5.70003 13.7001V6.2001C5.70003 4.3001 7.30003 2.7001 9.20003 2.7001C9.80003 2.7001 10.4 2.9001 11 3.2001C11.2 1.4001 12.7 0.100098 14.5 0.100098C16.3 0.100098 17.8 1.4001 18 3.2001C18.5 2.9001 19.2 2.7001 19.8 2.7001C21.7 2.7001 23.3 4.3001 23.3 6.2001V23.0001C26.5 23.7001 28.1 26.2001 28.1 29.5001ZM2.20003 24.6001C2.20003 25.6001 3.00003 26.4001 4.00003 26.4001C5.00003 26.4001 5.80003 25.6001 5.80003 24.7001V16.8001C5.80003 15.8001 5.00003 15.0001 4.00003 15.0001C3.00003 15.0001 2.20003 15.8001 2.20003 16.8001C2.20003 16.7001 2.20003 24.6001 2.20003 24.6001Z" fill="#E95F7F"/>
</svg>
