<svg width="20" height="20" viewBox="0 0 20 20" fill="none" xmlns="http://www.w3.org/2000/svg">
<g clip-path="url(#clip0_105_97)">
<path d="M10 2.50242C12.6588 2.50242 12.9882 2.50242 14.0471 2.54646C15.0118 2.59049 15.5529 2.74461 15.9059 2.87671C16.3765 3.05284 16.7059 3.25099 17.0588 3.58125C17.4118 3.9115 17.6235 4.21973 17.8118 4.66007C17.9529 4.99032 18.1176 5.47469 18.1647 6.3994C18.2118 7.39015 18.2118 7.67637 18.2118 10.1863C18.2118 12.6962 18.2118 12.9824 18.1647 13.9732C18.1176 14.8759 17.9529 15.3823 17.8118 15.7125C17.6235 16.1528 17.4118 16.4611 17.0588 16.7913C16.7059 17.1216 16.3765 17.3197 15.9059 17.4959C15.5529 17.628 15.0353 17.7821 14.0471 17.8261C12.9882 17.8702 12.6824 17.8702 10 17.8702C7.34118 17.8702 7.01176 17.8702 5.95294 17.8261C4.98824 17.7821 4.44706 17.628 4.09412 17.4959C3.62353 17.3197 3.29412 17.1216 2.94118 16.7913C2.58824 16.4611 2.37647 16.1528 2.18824 15.7125C2.04706 15.3823 1.88235 14.8979 1.83529 13.9732C1.78824 12.9824 1.78824 12.6962 1.78824 10.1863C1.78824 7.67637 1.78824 7.39015 1.83529 6.3994C1.88235 5.49671 2.04706 4.99032 2.18824 4.66007C2.37647 4.21973 2.58824 3.9115 2.94118 3.58125C3.29412 3.25099 3.62353 3.05284 4.09412 2.87671C4.44706 2.74461 4.96471 2.59049 5.95294 2.54646C7.01176 2.50242 7.34118 2.50242 10 2.50242ZM10 0.807129C7.29412 0.807129 6.94118 0.807129 5.88235 0.873179C4.82353 0.917213 4.09412 1.07133 3.45882 1.31352C2.8 1.5557 2.23529 1.86394 1.69412 2.39234C1.12941 2.92074 0.8 3.42713 0.541176 4.0436C0.282353 4.63805 0.117647 5.32057 0.0705882 6.31133C0 7.30209 0 7.63234 0 10.1643C0 12.6962 0 13.0265 0.0705882 14.0172C0.117647 15.008 0.282353 15.6905 0.541176 16.2849C0.8 16.9014 1.12941 17.4298 1.69412 17.9362C2.25882 18.4646 2.8 18.7728 3.45882 19.015C4.09412 19.2572 4.82353 19.4113 5.88235 19.4554C6.94118 19.5214 7.29412 19.5214 10 19.5214C12.7059 19.5214 13.0588 19.5214 14.1176 19.4554C15.1765 19.4113 15.9059 19.2572 16.5412 19.015C17.2 18.7728 17.7647 18.4646 18.3059 17.9362C18.8706 17.4078 19.2 16.9014 19.4588 16.2849C19.7176 15.6905 19.8824 15.008 19.9294 14.0172C20 13.0265 20 12.6962 20 10.1643C20 7.63234 20 7.30209 19.9294 6.31133C19.8824 5.32057 19.7176 4.63805 19.4588 4.0436C19.2 3.42713 18.8706 2.89873 18.3059 2.39234C17.7412 1.86394 17.2 1.5557 16.5412 1.31352C15.9059 1.07133 15.1765 0.917213 14.1176 0.873179C13.0588 0.807129 12.7059 0.807129 10 0.807129Z" fill="white"/>
<path d="M9.99999 5.3645C7.15293 5.3645 4.87057 7.52215 4.87057 10.1642C4.87057 12.8062 7.17646 14.9638 9.99999 14.9638C12.847 14.9638 15.1294 12.8062 15.1294 10.1642C15.1294 7.52215 12.847 5.3645 9.99999 5.3645ZM9.99999 13.2906C8.16469 13.2906 6.65881 11.9035 6.65881 10.1642C6.65881 8.42484 8.14116 7.03778 9.99999 7.03778C11.8588 7.03778 13.3412 8.42484 13.3412 10.1642C13.3412 11.9035 11.8353 13.2906 9.99999 13.2906Z" fill="white"/>
<path d="M15.3412 6.28942C16.0039 6.28942 16.5412 5.7867 16.5412 5.16656C16.5412 4.54642 16.0039 4.0437 15.3412 4.0437C14.6784 4.0437 14.1412 4.54642 14.1412 5.16656C14.1412 5.7867 14.6784 6.28942 15.3412 6.28942Z" fill="white"/>
</g>
<defs>
<clipPath id="clip0_105_97">
<rect width="20" height="18.7143" fill="white" transform="translate(0 0.807129)"/>
</clipPath>
</defs>
</svg>
