<svg width="20" height="20" viewBox="0 0 20 20" fill="none" xmlns="http://www.w3.org/2000/svg">
<path d="M11.05 8.44613C11.325 8.14538 11.55 7.81956 11.85 7.54387C12.725 6.71681 13.75 6.29074 14.975 6.3158C15.65 6.3158 16.2999 6.36593 16.9249 6.56643C18.4 6.9925 19.25 7.995 19.65 9.44864C19.95 10.5263 20 11.6291 20.025 12.7318C20.025 15.0627 20.025 17.3935 20.025 19.7494C20.025 19.975 19.975 20.0251 19.75 20.0251C18.55 20.0251 17.35 20.0251 16.15 20.0251C15.95 20.0251 15.9 19.9499 15.9 19.7494C15.9 17.5188 15.9 15.3133 15.9 13.0827C15.9 12.5313 15.875 11.98 15.7 11.4286C15.425 10.4261 14.7 9.92483 13.65 9.97495C12.225 10.0501 11.475 10.7519 11.3 12.2055C11.25 12.5564 11.225 12.9073 11.225 13.2582C11.225 15.4135 11.225 17.594 11.225 19.7494C11.225 19.975 11.175 20.0251 10.95 20.0251C9.74995 20.0251 8.52495 20.0251 7.32495 20.0251C7.12495 20.0251 7.07495 19.975 7.07495 19.7745C7.07495 15.4887 7.07495 11.203 7.07495 6.91731C7.07495 6.71681 7.14995 6.66668 7.34995 6.66668C8.49995 6.66668 9.64995 6.66668 10.8 6.66668C11 6.66668 11.075 6.74187 11.05 6.94237C11.025 7.41856 11.05 7.91981 11.05 8.44613Z" fill="#FEFEFE"/>
<path d="M4.47495 13.3333C4.47495 15.4637 4.47495 17.5689 4.47495 19.6992C4.47495 19.9248 4.42495 20 4.17495 20C2.97495 19.9749 1.77495 20 0.574951 20C0.374951 20 0.324951 19.9499 0.324951 19.7494C0.324951 15.4637 0.324951 11.1779 0.324951 6.89223C0.324951 6.71679 0.374951 6.6416 0.549951 6.6416C1.77495 6.6416 2.97495 6.6416 4.19995 6.6416C4.42495 6.6416 4.47495 6.74185 4.47495 6.94235C4.44995 9.07268 4.47495 11.203 4.47495 13.3333Z" fill="#FEFEFE"/>
<path d="M4.8 2.38095C4.8 3.70927 3.725 4.78697 2.4 4.78697C1.1 4.81203 0 3.70927 0 2.40602C0 1.07769 1.075 0 2.4 0C3.725 0 4.8 1.07769 4.8 2.38095Z" fill="#FEFEFE"/>
</svg>
