<svg width="20" height="17" viewBox="0 0 20 17" fill="none" xmlns="http://www.w3.org/2000/svg">
<path d="M6.29291 16.2471C13.8444 16.2471 17.9634 10 17.9634 4.57666C17.9634 4.39359 17.9634 4.23341 17.9405 4.05034C18.7414 3.47826 19.4279 2.746 19.9771 1.9222C19.2449 2.24256 18.4439 2.4714 17.6201 2.56293C18.4897 2.0595 19.1304 1.25858 19.4508 0.297483C18.6499 0.778032 17.7803 1.0984 16.8421 1.30435C16.087 0.503432 15.0114 0 13.8444 0C11.5789 0 9.74828 1.83066 9.74828 4.09611C9.74828 4.41648 9.79405 4.73684 9.8627 5.03432C6.4302 4.87414 3.40961 3.22654 1.39588 0.755149C1.05263 1.35011 0.846682 2.0595 0.846682 2.81465C0.846682 4.23341 1.57895 5.49199 2.67735 6.22426C2.01373 6.20137 1.373 6.01831 0.823799 5.72082C0.823799 5.74371 0.823799 5.74371 0.823799 5.76659C0.823799 7.75744 2.24256 9.40503 4.11899 9.79405C3.77574 9.88558 3.40961 9.93135 3.04348 9.93135C2.76888 9.93135 2.51716 9.90847 2.26545 9.8627C2.79176 11.4874 4.30206 12.6773 6.08696 12.7002C4.69108 13.7986 2.90618 14.4622 0.983982 14.4622C0.663616 14.4622 0.320366 14.4394 0 14.4165C1.80778 15.5606 3.98169 16.2471 6.29291 16.2471Z" fill="white"/>
</svg>
